<svg xmlns="http://www.w3.org/2000/svg" fill="none" viewBox="0 0 104 27" class="5qil7tlso__design-iconfont" width="128" height="33.23076923076923">
  <path fill-rule="evenodd" clip-rule="evenodd" d="M38.3697 21.0859C38.7047 21.1114 38.9956 20.8583 39.0208 20.521C39.0224 20.4939 39.0224 20.4669 39.0208 20.4398V18.5492C39.0208 17.9127 38.3728 17.9684 38.3728 17.9684L25.2034 17.9477C23.9453 17.9477 23.9138 16.6539 23.9138 16.6539C23.8981 16.5727 23.9138 15.3617 23.9138 15.3617H36.4951C39.988 15.3617 39.6876 12.8155 39.6876 12.8155V10.2851C39.6876 10.2851 39.977 5.80856 35.2433 5.80856H24.6388C19.8202 5.80856 20.1473 10.2263 20.1473 10.2263V16.6221C20.1473 21.078 24.5508 21.0605 24.5508 21.0605M35.2354 12.1789H23.9091V10.2788C23.9453 9.58971 24.4863 9.0375 25.1672 8.99612H34.6221C35.1929 8.99612 35.8534 9.64222 35.8503 10.2692C35.8503 10.7657 35.8409 11.0649 35.8409 11.5423C35.8519 11.5455 35.8519 12.1821 35.2433 12.1821L35.2354 12.1789Z" fill="#FFFFFF"></path>
  <path fill-rule="evenodd" clip-rule="evenodd" d="M18.268 0.0875244H15.7518C15.4231 0.0891158 15.1589 0.361244 15.162 0.693845C15.162 0.709759 15.162 0.725672 15.1636 0.741586V5.81653H6.95903C1.03797 5.81653 -0.00470208 11.0029 1.58956e-05 13.4648C0.00473387 15.9266 1.082 21.078 7.06754 21.0716C13.0531 21.0652 13.2324 21.0859 15.7675 21.0859C18.9049 21.0859 18.9364 17.9222 18.9364 17.9222V0.724081C18.9317 0.0875244 18.268 0.0875244 18.268 0.0875244ZM15.1589 17.2745C15.1274 17.639 14.8239 17.9159 14.4622 17.9111C13.7765 17.9111 10.4252 17.9302 8.36813 17.9238C6.31109 17.9175 3.77282 17.4544 3.77125 13.5093C3.76968 9.56426 6.60203 8.99772 8.3524 8.99772H15.1557C15.1557 8.99772 15.1589 16.7144 15.1589 17.2793V17.2745Z" fill="#FFFFFF"></path>
  <path d="M84.9393 0H82.4231C82.0756 0 81.794 0.284996 81.794 0.636556V3.18278C81.794 3.53434 82.0756 3.81934 82.4231 3.81934H84.9393C85.2867 3.81934 85.5684 3.53434 85.5684 3.18278V0.636556C85.5684 0.284996 85.2867 0 84.9393 0Z" fill="#FFFFFF"></path>
  <path fill-rule="evenodd" clip-rule="evenodd" d="M85.6124 20.4494C85.6124 20.8011 85.3309 21.0859 84.9833 21.0859H82.4671C82.1195 21.0859 81.838 20.8011 81.838 20.4494V6.44512C81.838 6.09342 82.1195 5.80856 82.4671 5.80856L84.9959 5.85471C85.3026 5.84517 85.5605 6.08865 85.5699 6.40056C85.5699 6.41966 85.5699 6.44034 85.5699 6.45944L85.614 20.4494H85.6124Z" fill="#FFFFFF"></path>
  <path fill-rule="evenodd" clip-rule="evenodd" d="M96.9355 5.80857H86.8705V20.4494C86.8563 20.7947 87.1205 21.0859 87.4618 21.1002C87.5168 21.1034 87.5719 21.0971 87.6254 21.0859H89.8271C90.6952 21.2116 90.67 20.4494 90.67 20.4494L90.6511 9.02159H96.9418C97.0471 9.02159 99.4816 9.06933 99.4816 12.2044L99.5084 20.4446C99.4863 20.7724 99.7301 21.0573 100.054 21.0796C100.067 21.0796 100.081 21.0796 100.093 21.0796H102.61C102.945 21.0764 103.212 20.7995 103.209 20.4605C103.209 20.4541 103.209 20.4478 103.209 20.443C103.209 20.443 103.236 12.9109 103.236 11.9195C103.226 8.3532 101.556 5.81971 96.9355 5.80698V5.80857Z" fill="#FFFFFF"></path>
  <path fill-rule="evenodd" clip-rule="evenodd" d="M62.3354 26.8229H64.8407C64.8407 26.8229 65.4839 26.8229 65.4839 26.1752V21.0939C68.1323 21.0939 70.8514 21.07 73.6082 21.07C79.5277 21.07 80.5814 15.9075 80.5767 13.4456C80.572 10.9838 79.512 5.82607 73.5233 5.83243C67.5346 5.8388 67.3774 5.83243 64.8423 5.83243C61.6969 5.83243 61.7079 8.99612 61.7079 8.99612V26.1863C61.7079 26.8229 62.3354 26.8229 62.3354 26.8229ZM65.4808 9.61994C65.4713 9.28575 65.7324 9.00726 66.0611 8.9993C66.0768 8.9993 66.0925 8.9993 66.1098 8.9993H72.2007C74.2578 8.9993 76.7834 9.4624 76.7834 13.4075C76.7834 17.3525 73.97 17.9366 72.2227 17.9366C70.4755 17.9366 65.487 17.892 65.487 17.892C65.487 17.892 65.4776 10.1849 65.4776 9.6279L65.4808 9.61994Z" fill="#FFFFFF"></path>
  <path fill-rule="evenodd" clip-rule="evenodd" d="M59.1288 21.0859C59.4638 21.1114 59.7547 20.8583 59.7799 20.521C59.7815 20.4939 59.7815 20.4669 59.7799 20.4398V18.5492C59.7799 17.9127 59.1194 17.9588 59.1194 17.9588L45.9782 17.9477C44.7107 17.9477 44.6729 16.6539 44.6729 16.6539C44.6572 16.5727 44.6729 15.3617 44.6729 15.3617H57.2542C60.7471 15.3617 60.4467 12.8155 60.4467 12.8155V10.2851C60.4467 10.2851 60.7361 5.80856 56.0023 5.80856H45.3979C40.5793 5.80856 40.9064 10.2263 40.9064 10.2263V16.6221C40.9064 21.078 45.3099 21.0605 45.3099 21.0605M55.9945 12.1789H44.6682V10.2788C44.7044 9.58971 45.2454 9.0375 45.9263 8.99612H55.3812C55.952 8.99612 56.6125 9.64222 56.6094 10.2692C56.6094 10.7657 56.6 11.0649 56.6 11.5423C56.611 11.5455 56.611 12.1821 56.0023 12.1821L55.9945 12.1789Z" fill="#FFFFFF"></path>
</svg>