<svg xmlns="http://www.w3.org/2000/svg" width="104" height="27" viewBox="0 0 104 27" fill="none">
  <path fill-rule="evenodd" clip-rule="evenodd" d="M35.2671 11.9683C34.8649 11.9683 23.9274 11.9691 23.9274 11.9691C23.9274 11.9691 23.9298 10.3387 23.9298 10.0906C23.9298 9.45079 24.5369 8.82371 25.1964 8.82212C25.8071 8.81972 34.023 8.82212 34.6564 8.82212C35.2272 8.82212 35.889 9.46118 35.8858 10.0803C35.8838 10.5711 35.8762 10.8723 35.8762 11.3396C35.8762 11.3396 35.8762 11.9683 35.2671 11.9683ZM38.3937 20.7701C39.0424 20.7701 39.0472 20.1898 39.0464 20.1311C39.0456 19.9122 39.0424 18.4827 39.0424 18.2622C39.0424 17.6336 38.4041 17.624 38.4041 17.624C38.4041 17.624 25.9764 17.614 25.1752 17.614C23.9079 17.614 23.9274 16.3858 23.9274 16.3858C23.9106 16.3063 23.9282 15.1057 23.9274 15.1057H36.5205C40.0165 15.1057 39.6623 12.5878 39.6623 12.5878V10.0938C39.6623 10.0938 40.0034 5.66516 35.2659 5.66516H24.6571C19.8362 5.66516 20.1634 10.0343 20.1634 10.0343C20.1634 12.4012 20.1642 13.2468 20.1642 16.3602C20.1642 20.7701 24.5761 20.7506 24.5761 20.7506" fill="#05B9EF"></path>
  <path fill-rule="evenodd" clip-rule="evenodd" d="M15.105 17.0094C15.105 17.0094 15.1154 17.6241 14.4755 17.6241C13.7893 17.6241 10.4395 17.6313 8.38088 17.6249C6.32151 17.6185 3.79723 17.1663 3.79563 13.2673C3.79403 9.36582 6.59991 8.82621 8.35133 8.82621C10.102 8.82621 15.1018 8.833 15.1018 8.833C15.1018 8.833 15.105 16.4502 15.105 17.0094ZM18.256 0C17.9856 0.00159765 16.0156 0.00159765 15.7464 0C15.7464 0 15.1162 1.78814e-07 15.1162 0.649045C15.1162 0.701368 15.1134 5.66526 15.1134 5.66526C12.4637 5.66446 9.71932 5.66606 6.96137 5.66526C1.03809 5.66287 -0.00477655 10.7921 1.63999e-05 13.2265C0.006407 15.6606 1.06525 20.7611 7.05524 20.7547C13.0444 20.7483 13.2122 20.7618 15.7476 20.7618C18.8882 20.7618 18.8918 17.6333 18.8918 17.6333V0.629474C18.8918 2.98023e-07 18.256 0 18.256 0Z" fill="#05B9EF"></path>
  <path fill-rule="evenodd" clip-rule="evenodd" d="M84.9796 3.77644H82.4617C82.1146 3.77644 81.8318 3.49486 81.8318 3.14777V0.629474C81.8318 0.282385 82.1146 0 82.4617 0H84.9796C85.327 0 85.6086 0.282385 85.6086 0.629474V3.14777C85.6086 3.49486 85.327 3.77644 84.9796 3.77644Z" fill="#05B9EF"></path>
  <path fill-rule="evenodd" clip-rule="evenodd" d="M84.9796 20.7703H82.4617C82.1146 20.7703 81.8318 20.4887 81.8318 20.1408V6.29476C81.8318 5.94687 82.1146 5.66528 82.4617 5.66528H84.9796C85.327 5.66528 85.6086 5.94687 85.6086 6.29476V20.1408C85.6086 20.4887 85.327 20.7703 84.9796 20.7703Z" fill="#05B9EF"></path>
  <path fill-rule="evenodd" clip-rule="evenodd" d="M96.9378 5.669C92.3142 5.6634 86.8674 5.6674 86.8674 5.6674V20.1313C86.8674 20.4161 87.05 20.8375 87.6211 20.7648C88.2362 20.7632 89.2032 20.76 89.8195 20.7576C90.6866 20.881 90.6614 20.1213 90.6614 20.1213L90.6431 8.82235C90.6431 8.82235 95.2483 8.81676 96.9326 8.81676C97.0377 8.81676 99.4753 8.86429 99.4753 11.9589L99.4565 20.1421C99.4561 20.4908 99.7381 20.7732 100.086 20.7732L102.603 20.7712C102.95 20.7712 103.232 20.4888 103.232 20.1421V11.6718C103.232 8.18409 101.561 5.67539 96.9378 5.669Z" fill="#05B9EF"></path>
  <path fill-rule="evenodd" clip-rule="evenodd" d="M15.1041 17.0421C15.0957 17.1676 15.0282 17.6241 14.4758 17.6241C13.7897 17.6241 10.4398 17.6313 8.38122 17.6249C6.32185 17.6185 3.79596 17.1664 3.79596 13.2673C3.79596 9.22166 6.60024 8.82624 8.35126 8.82624C8.35126 8.82624 -1.77504 8.60217 1.00327 17.1536C1.82926 19.4426 4.07995 20.7579 7.05557 20.7547C10.7046 20.7507 10.3028 20.7547 11.4819 20.7579C13.5197 20.7579 15.1041 19.0728 15.1041 17.0421Z" fill="#004DA2"></path>
  <path fill-rule="evenodd" clip-rule="evenodd" d="M65.4682 9.41648C65.4682 9.41648 65.4587 8.80338 66.0981 8.80338C66.7839 8.80338 70.1346 8.79459 72.1928 8.80178C74.2525 8.80817 76.7768 9.2603 76.778 13.1602C76.78 17.06 73.9741 17.5996 72.2227 17.5996C70.4721 17.5996 65.4714 17.5936 65.4714 17.5936C65.4714 17.5936 65.4682 9.97565 65.4682 9.41648ZM62.3225 26.4266C62.5929 26.4258 64.5608 26.4258 64.8296 26.4266C64.8296 26.4266 65.4587 26.4266 65.4587 25.7768C65.4587 25.7253 65.4607 20.7614 65.4607 20.7614C68.1108 20.763 70.8551 20.7606 73.6135 20.7614C79.5367 20.7638 80.5788 15.6345 80.5736 13.1993C80.5684 10.7661 79.5088 5.66639 73.5192 5.67278C67.5288 5.67758 67.3659 5.66479 64.8304 5.66479C61.6902 5.66479 61.6914 8.79259 61.6914 8.79259V25.7964C61.6914 26.4266 62.3225 26.4266 62.3225 26.4266Z" fill="#05B9EF"></path>
  <path fill-rule="evenodd" clip-rule="evenodd" d="M38.4036 17.624C38.4036 17.624 26.7667 17.6141 25.215 17.6141C23.9185 17.6141 23.9269 16.3859 23.9269 16.3859C23.9269 16.3859 23.6377 20.7702 27.4541 20.7702H38.3932C39.0722 20.7702 39.0331 20.1407 39.0331 20.1407V18.2639C39.0331 17.6528 38.4036 17.624 38.4036 17.624Z" fill="#004DA2"></path>
  <path fill-rule="evenodd" clip-rule="evenodd" d="M56.0378 11.9683C55.6352 11.9683 44.6973 11.9691 44.6973 11.9691C44.6973 11.9691 44.7001 10.3387 44.7001 10.0906C44.7001 9.45079 45.3076 8.82371 45.9662 8.82212C46.5777 8.81972 54.794 8.82212 55.4267 8.82212C55.9975 8.82212 56.6593 9.46118 56.6561 10.0803C56.6541 10.5711 56.6465 10.8723 56.6465 11.3396C56.6465 11.3396 56.6465 11.9683 56.0378 11.9683ZM59.1636 20.7701C59.813 20.7701 59.817 20.1898 59.817 20.1311C59.8162 19.9122 59.8126 18.4827 59.8126 18.2622C59.8126 17.6336 59.1744 17.624 59.1744 17.624C59.1744 17.624 46.7467 17.614 45.9458 17.614C44.6785 17.614 44.6973 16.3858 44.6973 16.3858C44.6813 16.3063 44.6985 15.1057 44.6973 15.1057H57.2904C60.7872 15.1057 60.4325 12.5878 60.4325 12.5878V10.0938C60.4325 10.0938 60.7732 5.66516 56.0374 5.66516H45.4278C40.6065 5.66516 40.9336 10.0343 40.9336 10.0343C40.9336 12.4012 40.9344 13.2468 40.9344 16.3602C40.9344 20.7701 45.3463 20.7506 45.3463 20.7506" fill="#05B9EF"></path>
  <path fill-rule="evenodd" clip-rule="evenodd" d="M59.1743 17.624C59.1743 17.624 47.5378 17.6141 45.9861 17.6141C44.6896 17.6141 44.6976 16.3859 44.6976 16.3859C44.6976 16.3859 44.4088 20.7702 48.2252 20.7702H59.1639C59.8429 20.7702 59.803 20.1407 59.803 20.1407V18.2639C59.803 17.6528 59.1743 17.624 59.1743 17.624Z" fill="#004DA2"></path>
  <path fill-rule="evenodd" clip-rule="evenodd" d="M79.1608 14.5223C78.5182 11.0346 75.3436 9.54199 75.3436 9.54199L75.2953 9.54998C76.1628 10.1567 76.7775 11.2395 76.7779 13.1603C76.7799 17.0601 73.9741 17.5997 72.2226 17.5997C70.472 17.5997 65.4714 17.5937 65.4714 17.5937C65.4714 17.5937 65.4702 13.8477 65.4686 11.3294H65.4678V20.7615C68.1151 20.7631 73.877 20.7539 74.0064 20.7459L74.0044 20.7523C75.2921 20.7539 76.4696 20.2678 76.4696 20.2678C79.3082 18.4549 79.426 15.9637 79.1608 14.5223Z" fill="#004DA2"></path>
  <path fill-rule="evenodd" clip-rule="evenodd" d="M84.9788 5.66504H82.4609C82.4609 5.66504 85.6079 8.36107 85.6079 13.8957V6.29451C85.6079 5.94662 85.3263 5.66504 84.9788 5.66504Z" fill="#004DA2"></path>
  <path fill-rule="evenodd" clip-rule="evenodd" d="M82.4612 3.77641H84.9791C85.0558 3.77641 85.128 3.75764 85.1955 3.73368C82.2531 3.36861 81.8313 0.70813 81.8313 0.70813V3.14774C81.8313 3.49483 82.1141 3.77641 82.4612 3.77641Z" fill="#004DA2"></path>
  <path d="M97.1909 8.84009C97.8392 8.93355 99.4756 9.42203 99.4756 11.9591L99.4568 20.1423C99.4564 20.4909 99.7384 20.7733 100.087 20.7733L102.603 20.7709C102.95 20.7709 103.232 20.4885 103.232 20.1423V13.4577C103.232 9.37211 97.1909 8.84009 97.1909 8.84009Z" fill="#004DA2"></path>
</svg>