<svg width="21" height="21" viewBox="0 0 21 21" fill="none" xmlns="http://www.w3.org/2000/svg">
<path d="M10.4399 20.8799C16.2058 20.8799 20.8799 16.2058 20.8799 10.4399C20.8799 4.67412 16.2058 0 10.4399 0C4.67412 0 0 4.67412 0 10.4399C0 16.2058 4.67412 20.8799 10.4399 20.8799Z" fill="white"/>
<path d="M20.0921 10.4399C20.0921 15.7706 15.7706 20.092 10.4399 20.092C5.10922 20.092 0.787781 15.7706 0.787781 10.4399C0.787781 5.10916 5.10922 0.78772 10.4399 0.78772C15.7706 0.78772 20.0921 5.10916 20.0921 10.4399Z" fill="black"/>
<path d="M1.44733 14.5382C3.51815 15.1413 9.18473 16.4464 12.7625 13.9204C15.0826 12.2819 14.7843 9.65701 14.7843 9.65701C14.7451 7.66137 13.4841 5.67798 13.4841 5.67798C18.3874 9.95366 15.4904 14.7033 15.4904 14.7033C13.9973 17.6404 10.7611 19.4064 8.18037 20.025C5.20816 19.3361 2.72218 17.3102 1.44733 14.5382ZM2.77857 4.20127C3.38658 7.38842 4.7497 10.0713 5.65599 11.0479C6.8287 12.3097 8.55384 13.6499 10.7685 13.0959C12.9832 12.5418 13.4343 10.1204 13.4343 10.1204C13.9246 8.06017 13.2275 5.61342 13.1891 5.56194C13.1507 5.51045 12.8189 5.45325 12.8189 5.45325C13.1662 8.6976 12.313 10.1334 12.313 10.1334C11.0709 12.6774 9.24848 11.8913 9.24848 11.8913C7.21933 10.8575 7.31494 7.94494 7.31494 7.94494C7.25283 5.91988 8.05534 2.57174 9.59743 0.622681C6.93248 0.838426 4.47021 2.13045 2.77857 4.20127ZM14.2498 1.3737C13.0657 2.33638 11.0521 4.39087 11.0521 4.39087C8.06433 7.15878 8.64373 9.4903 8.64373 9.4903C9.12017 11.9362 10.6051 10.2879 10.6051 10.2879C12.1569 8.6788 12.0409 5.47531 12.0409 5.47531C11.665 5.53579 11.3103 5.69106 11.0104 5.92642C10.9336 8.06344 9.67179 9.3906 9.67179 9.3906C9.18146 9.93078 8.83496 9.41593 8.83496 9.41593C8.57754 9.02939 9.09239 8.76216 9.09239 8.76216C9.81235 8.13127 10.0289 7.05499 10.0199 6.65047C10.0109 6.24595 10.225 6.13562 10.225 6.13562C10.8584 5.64856 11.5391 5.2277 12.2583 4.87956C13.6222 4.18411 16.0567 4.06807 16.0567 4.06807C16.6565 4.08523 17.2572 4.06725 17.8546 4.01331C16.8698 2.86921 15.6358 1.96618 14.2474 1.3737H14.2498Z" fill="white"/>
</svg>
