<svg xmlns="http://www.w3.org/2000/svg" fill="none" viewBox="0 0 32 32" class="wgzhnkkgn__design-iconfont" width="128" height="128">
  <path d="M8.67205 19.9893C10.516 19.9893 12.0108 21.4841 12.0108 23.328C12.0108 25.1719 10.516 26.6667 8.67205 26.6667C6.82811 26.6667 5.33331 25.1719 5.33331 23.328C5.33331 21.4841 6.82811 19.9893 8.67205 19.9893ZM8.67205 19.9893L8.67205 8.67215M22.027 12.0109C23.8709 12.0109 25.3657 10.5161 25.3657 8.67215C25.3657 6.82822 23.8709 5.33341 22.027 5.33341C20.1831 5.33341 18.6882 6.82822 18.6882 8.67215C18.6882 10.5161 20.1831 12.0109 22.027 12.0109ZM22.027 12.0109L22.027 19.2781C22.027 21.4873 20.2361 23.2781 18.027 23.2781L12.0125 23.2781" stroke="currentColor" stroke-width="2" stroke-linecap="round"></path>
</svg>