<svg width="32" height="32" viewBox="0 0 32 32" fill="none" xmlns="http://www.w3.org/2000/svg">
<path d="M8.67205 19.9892C10.516 19.9892 12.0108 21.484 12.0108 23.328C12.0108 25.1719 10.516 26.6667 8.67205 26.6667C6.82811 26.6667 5.33331 25.1719 5.33331 23.328C5.33331 21.484 6.82811 19.9892 8.67205 19.9892ZM8.67205 19.9892L8.67205 8.67209M22.027 12.0108C23.8709 12.0108 25.3657 10.516 25.3657 8.67209C25.3657 6.82816 23.8709 5.33335 22.027 5.33335C20.1831 5.33335 18.6882 6.82816 18.6882 8.67209C18.6882 10.516 20.1831 12.0108 22.027 12.0108ZM22.027 12.0108L22.027 19.2781C22.027 21.4872 20.2361 23.2781 18.027 23.2781L12.0125 23.2781" stroke="black" stroke-width="2" stroke-linecap="round"/>
</svg>
