<svg width="19" height="19" viewBox="0 0 19 19" fill="none" xmlns="http://www.w3.org/2000/svg">
<path d="M3.26563 7.21875C2.98948 7.21875 2.76563 7.44261 2.76563 7.71875C2.76563 7.99489 2.98948 8.21875 3.26563 8.21875V7.21875ZM15.7344 8.21875C16.0105 8.21875 16.2344 7.99489 16.2344 7.71875C16.2344 7.44261 16.0105 7.21875 15.7344 7.21875V8.21875ZM3.34042 11.2265C3.06428 11.2265 2.84042 11.4503 2.84042 11.7265C2.84042 12.0026 3.06428 12.2265 3.34042 12.2265V11.2265ZM15.8092 12.2265C16.0853 12.2265 16.3092 12.0026 16.3092 11.7265C16.3092 11.4503 16.0853 11.2265 15.8092 11.2265V12.2265ZM16.125 9.5C16.125 13.1589 13.1589 16.125 9.5 16.125V17.125C13.7112 17.125 17.125 13.7112 17.125 9.5H16.125ZM9.5 16.125C5.84111 16.125 2.875 13.1589 2.875 9.5H1.875C1.875 13.7112 5.28883 17.125 9.5 17.125V16.125ZM2.875 9.5C2.875 5.84111 5.84111 2.875 9.5 2.875V1.875C5.28883 1.875 1.875 5.28883 1.875 9.5H2.875ZM9.5 2.875C13.1589 2.875 16.125 5.84111 16.125 9.5H17.125C17.125 5.28883 13.7112 1.875 9.5 1.875V2.875ZM9.5 16.125C9.23504 16.125 8.94321 16.0044 8.63418 15.7056C8.32275 15.4045 8.01945 14.9447 7.75389 14.3377C7.22343 13.1252 6.88281 11.4152 6.88281 9.5H5.88281C5.88281 11.5198 6.24 13.3723 6.83774 14.7385C7.13628 15.4209 7.50468 16.0046 7.93912 16.4246C8.37596 16.8469 8.90417 17.125 9.5 17.125V16.125ZM6.88281 9.5C6.88281 7.58477 7.22343 5.87476 7.75389 4.66227C8.01945 4.05529 8.32275 3.59548 8.63418 3.29439C8.94321 2.99564 9.23504 2.875 9.5 2.875V1.875C8.90417 1.875 8.37597 2.15311 7.93912 2.57544C7.50468 2.99545 7.13628 3.57907 6.83774 4.26145C6.24 5.62771 5.88281 7.4802 5.88281 9.5H6.88281ZM9.5 17.125C10.0958 17.125 10.624 16.8469 11.0609 16.4246C11.4953 16.0046 11.8637 15.4209 12.1623 14.7385C12.76 13.3723 13.1172 11.5198 13.1172 9.5H12.1172C12.1172 11.4152 11.7766 13.1252 11.2461 14.3377C10.9805 14.9447 10.6772 15.4045 10.3658 15.7056C10.0568 16.0044 9.76496 16.125 9.5 16.125V17.125ZM13.1172 9.5C13.1172 7.4802 12.76 5.62771 12.1623 4.26145C11.8637 3.57907 11.4953 2.99545 11.0609 2.57544C10.624 2.15311 10.0958 1.875 9.5 1.875V2.875C9.76496 2.875 10.0568 2.99564 10.3658 3.29439C10.6772 3.59548 10.9805 4.05529 11.2461 4.66227C11.7766 5.87476 12.1172 7.58477 12.1172 9.5H13.1172ZM3.26563 8.21875H15.7344V7.21875H3.26563V8.21875ZM3.34042 12.2265H15.8092V11.2265H3.34042V12.2265Z" fill="white"/>
</svg>
