<svg xmlns="http://www.w3.org/2000/svg" fill="none" viewBox="0 0 36 36" class="a6qmau4dz__design-iconfont" width="128" height="128">
  <path d="M16.5 30L16.5 31.5L16.5 30ZM31.5 26.25C32.3284 26.25 33 25.5784 33 24.75C33 23.9216 32.3284 23.25 31.5 23.25V26.25ZM23.4 23.25C22.5716 23.25 21.9 23.9216 21.9 24.75C21.9 25.5784 22.5716 26.25 23.4 26.25V23.25ZM25.95 28.7998C25.95 29.6282 26.6216 30.2998 27.45 30.2998C28.2784 30.2998 28.95 29.6282 28.95 28.7998H25.95ZM28.95 20.6998C28.95 19.8714 28.2784 19.1998 27.45 19.1998C26.6216 19.1998 25.95 19.8714 25.95 20.6998H28.95ZM20.8447 31.2067C21.6647 31.089 22.234 30.3288 22.1163 29.5088C21.9986 28.6888 21.2384 28.1194 20.4184 28.2372L20.8447 31.2067ZM19.3436 21.9026C20.1675 21.989 20.9054 21.3911 20.9918 20.5672C21.0782 19.7433 20.4803 19.0053 19.6564 18.919L19.3436 21.9026ZM16.5 28.5C12.9787 28.5 10.2081 27.9313 8.3776 27.0973C6.46473 26.2258 6 25.2973 6 24.75H3C3 27.1022 4.87618 28.7987 7.13377 29.8273C9.47375 30.8934 12.7031 31.5 16.5 31.5L16.5 28.5ZM6 24.75C6 24.8914 5.92752 24.7156 6.48558 24.2776C6.99058 23.8813 7.79011 23.4546 8.84695 23.0626C10.9492 22.283 13.772 21.75 16.5 21.75V18.75C13.429 18.75 10.2519 19.342 7.80381 20.2498C6.58552 20.7016 5.47237 21.2593 4.63346 21.9176C3.84761 22.5344 3 23.4836 3 24.75H6ZM19.5 10.5825C19.5 12.0835 18.1594 13.5 16.5 13.5V16.5C19.8112 16.5 22.5 13.7454 22.5 10.5825H19.5ZM16.5 13.5C14.8406 13.5 13.5 12.0835 13.5 10.5825H10.5C10.5 13.7454 13.1888 16.5 16.5 16.5V13.5ZM13.5 10.5825C13.5 9.01077 14.9098 7.5 16.5 7.5V4.5C13.1196 4.5 10.5 7.49042 10.5 10.5825H13.5ZM16.5 7.5C18.0902 7.5 19.5 9.01077 19.5 10.5825H22.5C22.5 7.49042 19.8804 4.5 16.5 4.5V7.5ZM31.5 23.25H27.45V26.25H31.5V23.25ZM27.45 23.25H23.4V26.25H27.45V23.25ZM28.95 28.7998V24.75H25.95V28.7998H28.95ZM28.95 24.75V20.6998H25.95V24.75H28.95ZM20.4184 28.2372C19.2393 28.4064 17.928 28.5 16.5 28.5L16.5 31.5C18.0573 31.5 19.5119 31.398 20.8447 31.2067L20.4184 28.2372ZM16.5 21.75C17.4116 21.75 18.3765 21.8012 19.3436 21.9026L19.6564 18.919C18.5904 18.8072 17.521 18.75 16.5 18.75V21.75Z" fill="currentColor"></path>
</svg>