<svg xmlns="http://www.w3.org/2000/svg" fill="none" viewBox="0 0 32 32" class="1ulei6hzz__design-iconfont" width="128" height="128">
  <path d="M25.6 18.2476C27.2898 19.5101 28.8 22.6889 28.8 24.6475C28.8 25.2577 28.3548 25.7523 27.8057 25.7523H27.2M20.8 13.0726C21.8931 12.4402 22.6286 11.2584 22.6286 9.9047C22.6286 8.55104 21.8931 7.36916 20.8 6.73682M4.19437 25.7523H21.7104C22.2596 25.7523 22.7048 25.2577 22.7048 24.6475C22.7048 20.812 19.5004 17.7027 12.9524 17.7027C6.40437 17.7027 3.20001 20.812 3.20001 24.6475C3.20001 25.2577 3.6452 25.7523 4.19437 25.7523ZM16.6095 9.9047C16.6095 11.9245 14.9722 13.5618 12.9524 13.5618C10.9326 13.5618 9.29525 11.9245 9.29525 9.9047C9.29525 7.88492 10.9326 6.24756 12.9524 6.24756C14.9722 6.24756 16.6095 7.88492 16.6095 9.9047Z" stroke="currentColor" stroke-width="2" stroke-linecap="round"></path>
</svg>